<svg width="31" height="31" viewBox="0 0 31 31" fill="none" xmlns="http://www.w3.org/2000/svg">
<path d="M12.0507 0C5.39714 0 0.00222778 5.39492 0.00222778 12.0486C0.00222778 18.7022 5.39714 24.0971 12.0508 24.0971C14.6094 24.0971 16.9822 23.2991 18.9326 21.9397L18.9341 21.9383L27.8698 30.8741C28.0356 31.0399 28.2993 31.0442 28.4694 30.8741L30.8777 28.4658C31.0436 28.3 31.035 28.025 30.8763 27.8662L21.9419 18.9318C23.3013 16.98 24.0993 14.6071 24.0993 12.0486C24.0993 5.39492 18.7044 0 12.0507 0ZM12.0507 21.2622C6.96198 21.2622 2.83714 17.1373 2.83714 12.0486C2.83714 6.95981 6.96203 2.83496 12.0507 2.83496C17.1394 2.83496 21.2643 6.95981 21.2643 12.0486C21.2643 17.1373 17.1395 21.2622 12.0507 21.2622Z" fill="white"/>
</svg>
